<svg id="Layer_1" data-name="Layer 1" xmlns="http://www.w3.org/2000/svg" xmlns:xlink="http://www.w3.org/1999/xlink" viewBox="0 0 400 400"><defs><style>.cls-1{fill:#fff;stroke:#143447;stroke-miterlimit:10;stroke-width:5px;}.cls-2{font-size:47.63px;font-family:PalanquinDark-Regular, Palanquin Dark;}.cls-2,.cls-3{fill:#143447;}.cls-3{font-size:17.82px;font-family:Palanquin-Regular, Palanquin;}.cls-4{fill:url(#Nueva_muestra_de_degradado_1);}.cls-5{fill:url(#Nueva_muestra_de_degradado_1-2);}.cls-6{fill:url(#Nueva_muestra_de_degradado_1-3);}.cls-7{fill:url(#Nueva_muestra_de_degradado_1-4);}.cls-8{fill:url(#Nueva_muestra_de_degradado_1-5);}.cls-9{fill:url(#Nueva_muestra_de_degradado_1-6);}.cls-10{fill:url(#Nueva_muestra_de_degradado_1-7);}</style><radialGradient id="Nueva_muestra_de_degradado_1" cx="224.01" cy="91.37" r="139.83" gradientUnits="userSpaceOnUse"><stop offset="0" stop-color="#ff9191"/><stop offset="0.5" stop-color="#f6455e"/><stop offset="0.59" stop-color="#ef4264"/><stop offset="0.71" stop-color="#da3875"/><stop offset="0.87" stop-color="#b92991"/><stop offset="1" stop-color="#971aad"/></radialGradient><radialGradient id="Nueva_muestra_de_degradado_1-2" cx="224.01" cy="91.37" r="139.83" xlink:href="#Nueva_muestra_de_degradado_1"/><radialGradient id="Nueva_muestra_de_degradado_1-3" cx="224.01" cy="91.37" r="139.83" xlink:href="#Nueva_muestra_de_degradado_1"/><radialGradient id="Nueva_muestra_de_degradado_1-4" cx="224.01" cy="91.37" r="139.83" xlink:href="#Nueva_muestra_de_degradado_1"/><radialGradient id="Nueva_muestra_de_degradado_1-5" cx="283.93" cy="53.13" r="258.45" xlink:href="#Nueva_muestra_de_degradado_1"/><radialGradient id="Nueva_muestra_de_degradado_1-6" cx="283.93" cy="53.13" r="258.45" xlink:href="#Nueva_muestra_de_degradado_1"/><radialGradient id="Nueva_muestra_de_degradado_1-7" cx="283.93" cy="53.13" r="258.45" xlink:href="#Nueva_muestra_de_degradado_1"/></defs><circle class="cls-1" cx="199.5" cy="200.5" r="188.5"/><text class="cls-2" transform="translate(72.06 277.88)">X-ComShop</text><text class="cls-3" transform="translate(106.05 308.47)">Computer Service Center</text><path class="cls-4" d="M151.46,138.17l1.71,50.13,55.15-36.81-1.71-50.13Zm5.75,42.54-1.44-40.52L202.57,109,204,149.46Z"/><polygon class="cls-5" points="255.18 174.13 210.48 154.73 155.33 191.54 200.02 210.94 255.18 174.13"/><path class="cls-6" d="M263.92,123l-5.83,11.68a63.24,63.24,0,1,1-18.71-25.32l11.87-3.16A73.31,73.31,0,1,0,263.92,123Z"/><polygon class="cls-7" points="222.34 118.11 239.53 127.63 246.79 148.09 267.81 105.99 222.34 118.11"/><polygon class="cls-8" points="162.32 146.26 162.81 160.77 178.77 150.11 178.28 135.6 162.32 146.26"/><polygon class="cls-9" points="178.77 150.11 179.06 158.65 188.46 152.38 188.17 143.84 178.77 150.11"/><polygon class="cls-10" points="187.88 135.3 188.18 143.84 197.57 137.56 197.28 129.02 187.88 135.3"/></svg>